<svg width="99" height="99" viewBox="0 0 99 99" fill="none" xmlns="http://www.w3.org/2000/svg">
<rect width="99" height="99" rx="10" fill="#E0001A"/>
<path d="M46.7891 39.3516C45.3828 39.3516 44.1289 39.6094 43.0273 40.125C41.9258 40.6172 40.9531 41.2266 40.1094 41.9531C39.2891 42.6562 38.6562 43.207 38.2109 43.6055L36.8398 39.4922C37.918 38.25 38.9492 37.3594 39.9336 36.8203C40.9414 36.2578 42.3828 35.7422 44.2578 35.2734C44.7031 35.1562 45.3242 35.0977 46.1211 35.0977C47.9492 35.0977 49.7305 35.6602 51.4648 36.7852C52.2617 37.2773 53.0703 38.0508 53.8906 39.1055C54.7109 40.1367 55.4844 41.2734 56.2109 42.5156V11.4375H60.6758V69.9727C60.6758 71.4961 60.2656 73.1016 59.4453 74.7891C58.3438 77.0859 56.6914 78.8086 54.4883 79.957C52.2852 81.1055 49.4727 81.6797 46.0508 81.6797C41.8789 81.6797 38.668 80.8711 36.418 79.2539C34.0742 77.6602 32.6562 75.2344 32.1641 71.9766H37.5781C37.9531 73.8984 38.8906 75.3633 40.3906 76.3711C41.8672 77.332 43.8828 77.8125 46.4375 77.8125C48.3594 77.8125 50.082 77.4727 51.6055 76.793C53.1523 76.1367 54.3008 75.1992 55.0508 73.9805C55.5898 73.2305 55.9766 72.3281 56.2109 71.2734C56.3984 70.5 56.4922 68.9297 56.4922 66.5625V64.9102V52.1133C56.4922 48.6211 55.4609 45.5977 53.3984 43.043C51.6641 40.6523 49.4609 39.4219 46.7891 39.3516Z" fill="white"/>
<path d="M46.7891 39.3516L46.868 36.3526L46.8285 36.3516H46.7891V39.3516ZM43.0273 40.125L44.2512 42.864L44.2753 42.8533L44.2992 42.8421L43.0273 40.125ZM40.1094 41.9531L42.0618 44.2309L42.0669 44.2264L40.1094 41.9531ZM38.2109 43.6055L35.3649 44.5542L36.8087 48.8856L40.2113 45.8412L38.2109 43.6055ZM36.8398 39.4922L34.5742 37.5258L33.4528 38.8178L33.9938 40.4409L36.8398 39.4922ZM39.9336 36.8203L41.3745 39.4516L41.3851 39.4458L41.3957 39.4399L39.9336 36.8203ZM44.2578 35.2734L44.9854 38.1839L45.0034 38.1794L45.0213 38.1747L44.2578 35.2734ZM51.4648 36.7852L49.8323 39.302L49.8601 39.3201L49.8884 39.3376L51.4648 36.7852ZM53.8906 39.1055L51.5226 40.9473L51.5326 40.9602L51.5428 40.973L53.8906 39.1055ZM56.2109 42.5156L53.6214 44.0303L59.2109 53.5866V42.5156H56.2109ZM56.2109 11.4375V8.4375H53.2109V11.4375H56.2109ZM60.6758 11.4375H63.6758V8.4375H60.6758V11.4375ZM59.4453 74.7891L56.7472 73.4775L56.7437 73.4846L56.7403 73.4918L59.4453 74.7891ZM36.418 79.2539L38.1689 76.8179L38.1372 76.7951L38.1049 76.7731L36.418 79.2539ZM32.1641 71.9766V68.9766H28.6768L29.1977 72.4247L32.1641 71.9766ZM37.5781 71.9766L40.5226 71.402L40.0493 68.9766H37.5781V71.9766ZM40.3906 76.3711L38.7176 78.8612L38.7358 78.8735L38.7543 78.8855L40.3906 76.3711ZM51.6055 76.793L50.4338 74.0312L50.4084 74.042L50.3831 74.0533L51.6055 76.793ZM55.0508 73.9805L52.6147 72.2296L52.5521 72.3167L52.4958 72.4082L55.0508 73.9805ZM56.2109 71.2734L53.2954 70.5666L53.2886 70.5946L53.2824 70.6226L56.2109 71.2734ZM53.3984 43.043L50.9702 44.8047L51.0156 44.8673L51.0642 44.9275L53.3984 43.043ZM46.7891 36.3516C45.0117 36.3516 43.3128 36.679 41.7555 37.4079L44.2992 42.8421C44.945 42.5398 45.7539 42.3516 46.7891 42.3516V36.3516ZM41.8035 37.386C40.4582 37.9871 39.2339 38.748 38.1518 39.6798L42.0669 44.2264C42.6724 43.7051 43.3934 43.2473 44.2512 42.864L41.8035 37.386ZM38.157 39.6754C37.3312 40.3832 36.6795 40.9501 36.2106 41.3697L40.2113 45.8412C40.633 45.4639 41.247 44.9293 42.0617 44.2309L38.157 39.6754ZM41.057 42.6568L39.6859 38.5435L33.9938 40.4409L35.3649 44.5542L41.057 42.6568ZM39.1055 41.4586C40.049 40.3715 40.8116 39.7599 41.3745 39.4516L38.4926 34.189C37.0868 34.9589 35.7869 36.1285 34.5742 37.5258L39.1055 41.4586ZM41.3957 39.4399C42.0695 39.0638 43.2194 38.6254 44.9854 38.1839L43.5302 32.363C41.5462 32.859 39.8133 33.4518 38.4715 34.2007L41.3957 39.4399ZM45.0213 38.1747C45.1005 38.1538 45.4237 38.0977 46.1211 38.0977V32.0977C45.2247 32.0977 44.3057 32.1587 43.4943 32.3722L45.0213 38.1747ZM46.1211 38.0977C47.2963 38.0977 48.5185 38.4499 49.8323 39.302L53.0974 34.2683C50.9425 32.8705 48.6021 32.0977 46.1211 32.0977V38.0977ZM49.8884 39.3376C50.2813 39.5803 50.8358 40.0643 51.5226 40.9473L56.2587 37.2636C55.3049 36.0373 54.2421 34.9744 53.0413 34.2328L49.8884 39.3376ZM51.5428 40.973C52.2666 41.8829 52.9604 42.9002 53.6214 44.0303L58.8005 41.001C58.0084 39.6467 57.1553 38.3905 56.2384 37.2379L51.5428 40.973ZM59.2109 42.5156V11.4375H53.2109V42.5156H59.2109ZM56.2109 14.4375H60.6758V8.4375H56.2109V14.4375ZM57.6758 11.4375V69.9727H63.6758V11.4375H57.6758ZM57.6758 69.9727C57.6758 70.9487 57.4139 72.1059 56.7472 73.4775L62.1434 76.1006C63.1173 74.0972 63.6758 72.0435 63.6758 69.9727H57.6758ZM56.7403 73.4918C55.9116 75.2197 54.714 76.4562 53.1016 77.2968L55.875 82.6173C58.6688 81.1609 60.7759 78.9522 62.1503 76.0864L56.7403 73.4918ZM53.1016 77.2968C51.4572 78.1539 49.1625 78.6797 46.0508 78.6797V84.6797C49.7828 84.6797 53.1131 84.057 55.875 82.6173L53.1016 77.2968ZM46.0508 78.6797C42.2072 78.6797 39.7097 77.9253 38.1689 76.8179L34.6671 81.69C37.6263 83.8169 41.5506 84.6797 46.0508 84.6797V78.6797ZM38.1049 76.7731C36.566 75.7267 35.52 74.107 35.1304 71.5284L29.1977 72.4247C29.7925 76.3618 31.5824 79.5936 34.731 81.7347L38.1049 76.7731ZM32.1641 74.9766H37.5781V68.9766H32.1641V74.9766ZM34.6337 72.5511C35.1472 75.1829 36.4976 77.3697 38.7176 78.8612L42.0637 73.8809C41.2837 73.3569 40.7591 72.614 40.5226 71.402L34.6337 72.5511ZM38.7543 78.8855C40.8906 80.2759 43.5498 80.8125 46.4375 80.8125V74.8125C44.2158 74.8125 42.8437 74.3882 42.027 73.8567L38.7543 78.8855ZM46.4375 80.8125C48.7169 80.8125 50.8655 80.4082 52.8278 79.5327L50.3831 74.0533C49.2986 74.5372 48.0019 74.8125 46.4375 74.8125V80.8125ZM52.7771 79.5547C54.7946 78.6988 56.4753 77.3897 57.6058 75.5528L52.4958 72.4082C52.1263 73.0087 51.5101 73.5746 50.4338 74.0312L52.7771 79.5547ZM57.4868 75.7314C58.2995 74.6007 58.8318 73.3087 59.1395 71.9242L53.2824 70.6226C53.1213 71.3475 52.8802 71.8603 52.6147 72.2296L57.4868 75.7314ZM59.1265 71.9802C59.4124 70.801 59.4922 68.8699 59.4922 66.5625H53.4922C53.4922 68.9895 53.3845 70.199 53.2954 70.5666L59.1265 71.9802ZM59.4922 66.5625V64.9102H53.4922V66.5625H59.4922ZM59.4922 64.9102V52.1133H53.4922V64.9102H59.4922ZM59.4922 52.1133C59.4922 47.9822 58.2545 44.2821 55.7327 41.1585L51.0642 44.9275C52.6673 46.9132 53.4922 49.26 53.4922 52.1133H59.4922ZM55.8267 41.2813C53.6104 38.2263 50.5798 36.4503 46.868 36.3526L46.7101 42.3505C48.3421 42.3935 49.7178 43.0783 50.9702 44.8047L55.8267 41.2813Z" fill="white"/>
</svg>
